<?xml version="1.0" encoding="UTF-8" standalone="no"?>
<!-- Created with Inkscape (http://www.inkscape.org/) -->

<svg
   width="31.999998"
   height="31.999998"
   viewBox="0 0 8.4666659 8.4666659"
   version="1.1"
   id="svg1"
   xml:space="preserve"
   inkscape:version="1.3.2 (091e20e, 2023-11-25, custom)"
   sodipodi:docname="application_launcher_icon.svg"
   xmlns:inkscape="http://www.inkscape.org/namespaces/inkscape"
   xmlns:sodipodi="http://sodipodi.sourceforge.net/DTD/sodipodi-0.dtd"
   xmlns="http://www.w3.org/2000/svg"
   xmlns:svg="http://www.w3.org/2000/svg"><sodipodi:namedview
     id="namedview1"
     pagecolor="#ffffff"
     bordercolor="#000000"
     borderopacity="0.25"
     inkscape:showpageshadow="2"
     inkscape:pageopacity="0.0"
     inkscape:pagecheckerboard="0"
     inkscape:deskcolor="#d1d1d1"
     inkscape:document-units="mm"
     inkscape:zoom="11.313708"
     inkscape:cx="30.317203"
     inkscape:cy="-6.850097"
     inkscape:window-width="2560"
     inkscape:window-height="1351"
     inkscape:window-x="2551"
     inkscape:window-y="-9"
     inkscape:window-maximized="1"
     inkscape:current-layer="layer1" /><defs
     id="defs1" /><g
     inkscape:label="Calque 1"
     inkscape:groupmode="layer"
     id="layer1"
     transform="translate(-1.3229131,-1.190627)"><path
       style="fill:#ffff00"
       d="M 2.9284428,7.9498133 C 3.3004716,7.7101516 3.7622205,7.2739004 3.9545516,6.9803661 4.2757334,6.4901806 4.2765125,6.4189354 3.9641068,6.1065298 3.2706377,5.4130607 4.3740501,5.0762733 5.2740963,5.7066902 c 0.556423,0.3897339 0.621009,1.4027264 0.1409361,2.2104976 l -0.3144933,0.5291666 0.026923,-0.635 C 5.1767209,6.649518 5.114246,6.6120418 4.3966171,7.37295 4.0045169,7.7886974 3.5360571,8.1288544 3.3555955,8.1288544 c -0.1804616,0 -0.5025897,0.057759 -0.7158403,0.1283537 -0.2132506,0.070595 -0.083341,-0.067733 0.2886876,-0.3073948 z M 5.5821777,5.1126046 c 0.089466,-0.2798148 2.1943072,-1.0689304 2.5420342,-0.9530213 0.277954,0.092651 -1.8167446,1.2176046 -2.2672186,1.2176046 -0.197676,0 -0.3213431,-0.1190625 -0.2748156,-0.2645833 z M 2.1528452,4.3772069 c 0.013874,-0.3424584 1.1178063,-0.954171 1.9148917,-1.0610826 0.6720409,-0.09014 0.8301232,-0.045573 0.8301232,0.2340271 0,0.2545177 -0.197647,0.3453699 -0.7513447,0.3453699 -0.4132395,0 -1.0323645,0.145321 -1.3758332,0.3229356 -0.3434687,0.1776146 -0.6214954,0.2490521 -0.617837,0.15875 z M 5.5328601,3.5780213 c -0.2102244,-0.2533048 -0.2102244,-0.3816951 0,-0.6349999 0.3355252,-0.4042837 0.7228072,-0.4042837 1.0583332,0 0.2102236,0.2533048 0.2102236,0.3816951 0,0.6349999 -0.144926,0.174625 -0.383051,0.3175 -0.529167,0.3175 -0.146115,0 -0.38424,-0.142875 -0.5291662,-0.3175 z m 3.3866658,0.1058333 c 0,-0.1164166 0.09525,-0.2116666 0.211667,-0.2116666 0.116417,0 0.211667,0.09525 0.211667,0.2116666 0,0.1164167 -0.09525,0.2116667 -0.211667,0.2116667 -0.116417,0 -0.211667,-0.09525 -0.211667,-0.2116667 z"
       id="path1" /></g></svg>
