<?xml version="1.0" encoding="UTF-8" standalone="no"?>
<!-- Created with Inkscape (http://www.inkscape.org/) -->

<svg
   width="40"
   height="40"
   viewBox="0 0 7.7227114 7.7227114"
   version="1.1"
   id="svg1"
   xml:space="preserve"
   inkscape:version="1.3.2 (091e20e, 2023-11-25, custom)"
   sodipodi:docname="application_launcher_icon.svg"
   xmlns:inkscape="http://www.inkscape.org/namespaces/inkscape"
   xmlns:sodipodi="http://sodipodi.sourceforge.net/DTD/sodipodi-0.dtd"
   xmlns="http://www.w3.org/2000/svg"
   xmlns:svg="http://www.w3.org/2000/svg"><sodipodi:namedview
     id="namedview1"
     pagecolor="#ffffff"
     bordercolor="#000000"
     borderopacity="0.25"
     inkscape:showpageshadow="2"
     inkscape:pageopacity="0.0"
     inkscape:pagecheckerboard="0"
     inkscape:deskcolor="#d1d1d1"
     inkscape:document-units="mm"
     inkscape:zoom="11.313708"
     inkscape:cx="27.223612"
     inkscape:cy="1.9003496"
     inkscape:window-width="2560"
     inkscape:window-height="1351"
     inkscape:window-x="2551"
     inkscape:window-y="-9"
     inkscape:window-maximized="1"
     inkscape:current-layer="layer1" /><defs
     id="defs1" /><g
     inkscape:label="Calque 1"
     inkscape:groupmode="layer"
     id="layer1"
     transform="translate(-2.1528095,-2.6398086)"><path
       style="fill:#ffff00"
       d="M 3.2868066,8.9566449 C 3.6588354,8.7169832 4.1205843,8.280732 4.3129154,7.9871977 4.6340972,7.4970122 4.6348763,7.425767 4.3224706,7.1133614 3.6290015,6.4198923 4.7324139,6.0831049 5.6324601,6.7135218 6.1888831,7.1032557 6.2534691,8.1162482 5.7733962,8.9240194 L 5.4589029,9.4531859 5.4858259,8.818186 C 5.5350847,7.6563496 5.4726098,7.6188734 4.7549809,8.3797816 4.3628807,8.795529 3.8944209,9.1356859 3.7139593,9.1356859 c -0.1804616,0 -0.5025897,0.05776 -0.7158403,0.128354 -0.2132506,0.07059 -0.083341,-0.06773 0.2886876,-0.307395 z M 5.9405415,6.1194362 C 6.0300075,5.8396214 8.1348487,5.0505058 8.4825757,5.1664149 8.7605297,5.2590659 6.6658311,6.3840195 6.2153571,6.3840195 6.0176811,6.3840195 5.894014,6.264957 5.9405415,6.1194362 Z M 2.511209,5.3840385 c 0.013874,-0.3424584 1.1178063,-0.954171 1.9148917,-1.0610826 0.6720409,-0.09014 0.8301232,-0.045573 0.8301232,0.2340271 0,0.2545177 -0.197647,0.3453699 -0.7513447,0.3453699 -0.4132395,0 -1.0323645,0.145321 -1.3758332,0.3229356 -0.3434687,0.1776146 -0.6214954,0.2490521 -0.617837,0.15875 z M 5.8912239,4.5848529 c -0.2102244,-0.2533048 -0.2102244,-0.3816951 0,-0.6349999 0.3355252,-0.4042837 0.7228072,-0.4042837 1.0583332,0 0.2102236,0.2533048 0.2102236,0.3816951 0,0.6349999 -0.144926,0.174625 -0.383051,0.3175 -0.529167,0.3175 -0.146115,0 -0.38424,-0.142875 -0.5291662,-0.3175 z m 3.3866657,0.1058333 c 0,-0.1164166 0.09525,-0.2116666 0.211667,-0.2116666 0.116417,0 0.211667,0.09525 0.211667,0.2116666 0,0.1164167 -0.09525,0.2116667 -0.211667,0.2116667 -0.116417,0 -0.211667,-0.09525 -0.211667,-0.2116667 z"
       id="path1" /></g></svg>
